<?xml version="1.0" encoding="utf-8"?>
<!-- Generator: Adobe Illustrator 23.1.1, SVG Export Plug-In . SVG Version: 6.00 Build 0)  -->
<svg version="1.1" id="Layer_1" xmlns="http://www.w3.org/2000/svg" xmlns:xlink="http://www.w3.org/1999/xlink" x="0px" y="0px"
	 viewBox="0 0 1152 648" style="enable-background:new 0 0 1152 648;" xml:space="preserve">
<style type="text/css">
	.st0{fill:#FCB457;}
	.st1{fill:url(#SVGID_1_);}
	.st2{fill:#FFFFFF;}
	.st3{fill:#525352;}
</style>
<path class="st0" d="M517.2,472c73.6,33.5,161.2,1.2,194.9-72.7c33.7-73.9,1.2-161.2-72.7-194.9s-161.2-1.2-194.9,72.7
	c-0.1,0.2-0.1,0.3-0.2,0.5l-39.8,87.3c0,0-7.5,14.4-5.2,29.6c2.7,17.8,17.6,27.1,24.9,31C424.1,425.6,450.1,441.4,517.2,472z"/>
<linearGradient id="SVGID_1_" gradientUnits="userSpaceOnUse" x1="565.7435" y1="929.4585" x2="303.3868" y2="1363.7479" gradientTransform="matrix(0.991 0.1336 -0.1336 0.991 225.5569 -793.193)">
	<stop  offset="0" style="stop-color:#6F57A5"/>
	<stop  offset="4.174148e-02" style="stop-color:#855396"/>
	<stop  offset="0.1166" style="stop-color:#A24B82"/>
	<stop  offset="0.1974" style="stop-color:#B94171"/>
	<stop  offset="0.2838" style="stop-color:#CC3763"/>
	<stop  offset="0.378" style="stop-color:#DA2C59"/>
	<stop  offset="0.4839" style="stop-color:#E42252"/>
	<stop  offset="0.6111" style="stop-color:#EA1B4D"/>
	<stop  offset="0.8168" style="stop-color:#ED174C"/>
</linearGradient>
<path class="st1" d="M710.5,267.7c-0.1-0.2-0.1-0.3-0.2-0.5l-30.8-90.1c0,0-3.8-17.5-16.7-25.9c-8.3-5.4-17.1-8.2-26.9-6.6
	c-11.1,1.8-21.9,5.4-32.7,8.5c-32.3,9.3-56.4,15.7-83.6,25.8c-21.4,8-37.3,19.4-51.5,33.9c-28.4,29-43.7,69.4-41.6,109.9
	c0.7,13.4,3.3,26.8,7.7,39.5c26.1,76.3,109,116.9,185.3,90.8S736.5,344,710.5,267.7z"/>
<path d="M687.3,231.2c-1.7-1.9-3.5-3.7-5.4-5.5c-56.8-55.6-147.9-54.6-203.4,2.2s-54.6,147.9,2.2,203.4
	c31.2,30.5,75.4,45.3,118.6,39.9c33-4.1,60.3-21.1,84.6-42.4c12.6-11.1,24.3-23.3,35.7-35.7c10.4-11.3,21.4-21.8,32-32.9
	c17.8-18.6,18.7-42.5,0.5-61c-13.1-13.4-46.2-48-60.1-62.8"/>
<path class="st2" d="M490.1,304.2c-5.5,0-10.8-4.1-11-10.4h31.4c0-15.2-6.2-24.7-20.4-24.7c-13.8,0-21.8,9.6-21.8,22.3
	c0,12.7,8,22.3,21.8,22.3c7.9,0,12.9-2.6,16.2-5.8l-7.3-6.2C497,303,494.2,304.2,490.1,304.2z M490.1,277.5c6.9,0,9.7,6.1,9.7,8.4
	h-20.7C480.2,281.3,484.1,277.5,490.1,277.5z"/>
<path class="st2" d="M528.4,292c0-9.2,6.3-12.5,13.3-12.5v-10.4c-6,0-10.7,2-13.1,6.9h-0.2v-5.9h-10.3v42.5h10.3V292z"/>
<path class="st2" d="M590.4,291.3c0-12.3-7.6-22.3-18.3-22.3c-5,0-9,1.8-12.1,4.6h-0.2v-3.6h-10.3v56.2h10.3v-17.7
	c2.7,3,6,5.1,12.1,5.1C582.8,313.6,590.4,303.6,590.4,291.3z M569.6,304.2c-7.7,0-10-6.7-10.1-12.9c0.1-6.1,2.4-12.9,10.1-12.9
	c7.7,0,10,6.7,10.1,12.9C579.6,297.5,577.3,304.2,569.6,304.2z"/>
<path class="st2" d="M541.1,356.7c0,5.1-2.4,10.8-10.1,10.8c-5.2,0-7.6-2.5-7.6-8.4v-25.2h-10.3V362c0,12.4,8.3,15.4,15.6,15.4
	c5.8,0,9.9-2.3,12.2-5.2h0.2v4.2h10.3v-42.5h-10.3V356.7z"/>
<rect x="561.6" y="333.8" class="st2" width="10.3" height="42.5"/>
<path class="st2" d="M595.8,319h-10.3v15h-6.2v7.4h6.2v25.4c0,6.5,2.9,10.3,11.3,10.3c3.2,0,5.7-0.5,8.2-1v-8.4
	c-1.5,0.2-3.1,0.5-4.5,0.5c-4,0-4.6-1.8-4.6-5.2v-21.5h9.2V334h-9.2V319z"/>
<path class="st2" d="M630.2,368c-5.5,0-10.8-4.1-11-10.4h31.4c0-15.2-6.2-24.7-20.4-24.7c-13.8,0-21.8,9.6-21.8,22.3
	c0,12.7,8,22.3,21.8,22.3c7.9,0,12.9-2.6,16.2-5.8l-7.3-6.2C637.2,366.8,634.4,368,630.2,368z M630.2,341.2c6.9,0,9.7,6.1,9.7,8.4
	h-20.7C620.3,345.1,624.3,341.2,630.2,341.2z"/>
<g>
	<path class="st2" d="M479.9,345.5c0-2.5,3-4.2,7.8-4.1c6.1,0,9.2,3.1,11.5,5.2l6.3-5.9c-2-2.5-7.4-7.7-17.6-7.7
		c-10.5,0-18.8,4.2-18.8,13.8c0,16.1,26.3,10.2,26.3,17.4c0,2.3-3.4,5-8.2,5c-5.1,0-8.8-1.2-12.2-4.2L475,365l-6.4,5.9
		c3.9,3.8,10,6.6,19.2,6.6c9.8,0,18.9-4.6,18.9-14.9C506.7,346.6,479.9,352.9,479.9,345.5z"/>
	<polygon class="st3" points="474.7,360.2 474.1,360.7 475,360.5 	"/>
	<polygon class="st3" points="475.1,364.9 475.4,364.7 475.4,364.6 475.1,364.9 	"/>
	<polygon class="st3" points="475,365 475.1,364.9 475.1,364.9 	"/>
</g>
<g>
	<path class="st2" d="M666,345.3c0-2.5,3-4.2,7.8-4.1c6.1,0,9.2,3.1,11.5,5.2l6.3-5.9c-2-2.5-7.4-7.7-17.6-7.7
		c-10.5,0-18.8,4.2-18.8,13.8c0,16.1,26.3,10.2,26.3,17.4c0,2.3-3.4,5-8.2,5c-5.1,0-8.8-1.2-12.2-4.2l-0.1,0.1l-6.4,5.9
		c3.9,3.8,10,6.6,19.2,6.6c9.8,0,18.9-4.6,18.9-14.9C692.9,346.4,666,352.7,666,345.3z"/>
</g>
</svg>
